<svg xmlns="http://www.w3.org/2000/svg" xmlns:xlink="http://www.w3.org/1999/xlink" viewBox="0 0 2560 1600.5"><defs><style>.cls-1{fill:url(#New_Gradient_Swatch_1);}</style><linearGradient id="New_Gradient_Swatch_1" x1="545.09" y1="1641.38" x2="1566.99" y2="471.43" gradientUnits="userSpaceOnUse"><stop offset="0" stop-color="#15e8ff"/><stop offset="1" stop-color="#007aff"/></linearGradient></defs><title>bg</title><g id="Layer_2" data-name="Layer 2"><g id="Layer_1-2" data-name="Layer 1"><path id="bg" class="cls-1" d="M0,0H1339s143,340,578,340,643,297,643,297v963c-2-261.27-222.77-427.46-390.5-395.5-138.69,26.43-263.31,192.56-249.89,395.5-12.06-13.75-96.42-106.7-235.11-105.5-135.54,1.17-217.35,91.35-229.76,105.5-9.63-12.61-84.88-107.75-216.24-111.5-141.11-4-224.28,100.88-232.4,111.5-22.91-28-83.71-94-183.6-117.5-191.26-44.93-339.34,110.15-346.14,117.5-137.26-115.6-298.1-148.45-399.86-84.5-21.57,13.55-51.43,38.33-76,85Z"/></g></g></svg>